<svg xmlns="http://www.w3.org/2000/svg" version="1.1" xmlns:xlink="http://www.w3.org/1999/xlink" xmlns:svgjs="http://svgjs.com/svgjs" width="1024" height="710" preserveAspectRatio="none" viewBox="0 0 1024 710"><g mask="url(&quot;#SvgjsMask1081&quot;)" fill="none"><rect width="1024" height="710" x="0" y="0" fill="#0e2a47"></rect><path d="M0,491.727C91.278,481.98,122.846,360.885,198.733,309.234C271.575,259.655,383.043,270.473,432.356,197.45C482.441,123.285,474.855,21.462,451.39,-64.9C429.309,-146.168,365.633,-205.619,306.536,-265.615C250.902,-322.095,196.565,-390.153,118.337,-403.02C42.062,-415.566,-27.385,-364.606,-97.505,-332.071C-157.699,-304.142,-207.777,-265.469,-261.642,-226.714C-333.259,-175.187,-447.932,-153.362,-465.935,-66.991C-483.661,18.052,-384.073,80.246,-341.394,155.91C-303.127,223.752,-283.545,300.181,-228.017,354.802C-163.506,418.259,-89.978,501.335,0,491.727" fill="#0b2137"></path><path d="M1024 1100.295C1107.976 1120.459 1200.704 1143.84 1277.8 1104.92 1356.444 1065.219 1407.077 980.462 1429.923 895.379 1451.21 816.099 1406.321 737.879 1398.29 656.185 1389.758 569.396 1440.144 464.75800000000004 1381.2649999999999 400.428 1322.084 335.768 1212.432 378.702 1126.874 359.642 1048.958 342.284 981.172 285.735 901.734 293.599 815.234 302.162 735.854 346.086 671.671 404.705 602.332 468.033 532.206 544.59 524.448 638.175 516.7760000000001 730.72 570.619 819.13 631.504 889.2470000000001 683.7149999999999 949.374 767.921 961.62 838.057 999.3330000000001 901.458 1033.425 954.004 1083.488 1024 1100.295" fill="#113357"></path></g><defs><mask id="SvgjsMask1081"><rect width="1024" height="710" fill="#ffffff"></rect></mask></defs></svg>